{"title":"Snow Patrol - Fallen Empires (2011) FLAC [CUE + LOG]","uid":6815910,"size":373826192,"categoryP":"audio","categoryS":"flac","magnet":"?xt=urn:btih:a7dc311d4c363b0fe423e0a7a985e5aea79cb9b8&amp;dn=Snow+Patrol+-+Fallen+Empires+%282011%29+FLAC+%5BCUE+%2B+LOG%5D&amp;tr=udp%3A%2F%2Ftracker.openbittorrent.com%3A80&amp;tr=udp%3A%2F%2Fopen.demonii.com%3A1337&amp;tr=udp%3A%2F%2Ftracker.coppersurfer.tk%3A6969&amp;tr=udp%3A%2F%2Fexodus.desync.com%3A6969","seeders":1,"leechers":0,"uploader":"vAin4us","files":16,"time":1321204485,"description":"01. I'll Never Let Go (4:43)\n02. Called Out In the Dark (4:02)\n03. The Weight of Love (4:16)\n04. This Isn't Everything You Are (4:58)\n05. The Garden Rules (4:28)\n06. Fallen Empires (5:20)\n07. Berlin (2:04)\n08. Lifening (3:53)\n09. New York (4:02)\n10. In the End (4:00)\n11. Those Distant Bells (3:18)\n12. The Symphony (6:06)\n13. The President (4:35)\n14. Broken Bottles Form A Star (Prelude) (1:32)\n\nSOURCE: WHAT.CD\n\nLOG:\n\nX Lossless Decoder version 20111015 (136.4)\n\nXLD extraction logfile from 2011-11-11 15:54:49 +0000\n\nSnow Patrol / Fallen Empires\n\nUsed drive : YAMAHA CRW-F1E (revision 1.0g)\n\nRipper mode             : XLD Secure Ripper\nDisable audio cache     : OK for the drive with a cache less than 1375KiB\nMake use of C2 pointers : NO\nRead offset correction  : 733\nMax retry count         : 100\nGap status              : Analyzed, Appended\n\nTOC of the extracted CD\n     Track |   Start  |  Length  | Start sector | End sector \n    ---------------------------------------------------------\n        1  | 00:00:00 | 04:42:49 |         0    |    21198   \n        2  | 04:42:49 | 04:01:69 |     21199    |    39342   \n        3  | 08:44:43 | 04:15:54 |     39343    |    58521   \n        4  | 13:00:22 | 04:58:33 |     58522    |    80904   \n        5  | 17:58:55 | 04:28:18 |     80905    |   101022   \n        6  | 22:26:73 | 05:19:38 |    101023    |   124985   \n        7  | 27:46:36 | 02:03:46 |    124986    |   134256   \n        8  | 29:50:07 | 03:53:06 |    134257    |   151737   \n        9  | 33:43:13 | 04:01:63 |    151738    |   169875   \n       10  | 37:45:01 | 03:59:47 |    169876    |   187847   \n       11  | 41:44:48 | 03:18:31 |    187848    |   202728   \n       12  | 45:03:04 | 06:06:34 |    202729    |   230212   \n       13  | 51:09:38 | 04:34:69 |    230213    |   250831   \n       14  | 55:44:32 | 01:31:65 |    250832    |   257721   \n\nAccurateRip Summary\n    Disc not found in AccurateRip DB.\n\nAll Tracks\n    Album gain             : -9.32 dB\n    Peak                   : 0.999084\n    Statistics\n        Read error                           : 0\n        Jitter error (maybe fixed)           : 0\n        Retry sector count                   : 0\n        Damaged sector count                 : 0\n\nTrack 01\n    Filename : /Volumes/HD 2/Snow Patrol - 2011 - Fallen Empires/01 - Snow Patrol - 2011 - I'll Never Let Go.flac\n    Pre-gap length : 00:02:00\n\n    Track gain             : -8.87 dB\n    Peak                   : 0.942810\n    CRC32 hash (test run)  : 89CB8429\n    CRC32 hash             : 89CB8429\n    CRC32 hash (skip zero) : 8B43381F\n    AccurateRip signature  : A3F1C46B\n        -&gt;Track not present in AccurateRip database.\n    Statistics\n        Read error                           : 0\n        Jitter error (maybe fixed)           : 0\n        Retry sector count                   : 0\n        Damaged sector count                 : 0\n\nTrack 02\n    Filename : /Volumes/HD 2/Snow Patrol - 2011 - Fallen Empires/02 - Snow Patrol - 2011 - Called Out In The Dark.flac\n\n    Track gain             : -9.88 dB\n    Peak                   : 0.956177\n    CRC32 hash (test run)  : A8853E27\n    CRC32 hash             : A8853E27\n    CRC32 hash (skip zero) : 7302F15C\n    AccurateRip signature  : E346CA7B\n        -&gt;Track not present in AccurateRip database.\n    Statistics\n        Read error                           : 0\n        Jitter error (maybe fixed)           : 0\n        Retry sector count                   : 0\n        Damaged sector count                 : 0\n\nTrack 03\n    Filename : /Volumes/HD 2/Snow Patrol - 2011 - Fallen Empires/03 - Snow Patrol - 2011 - The Weight Of Love.flac\n\n    Track gain             : -10.72 dB\n    Peak                   : 0.996796\n    CRC32 hash (test run)  : EF330476\n    CRC32 hash             : EF330476\n    CRC32 hash (skip zero) : 4AA1FA4D\n    AccurateRip signature  : E6547D9F\n        -&gt;Track not present in AccurateRip database.\n    Statistics\n        Read error                           : 0\n        Jitter error (maybe fixed)           : 0\n        Retry sector count                   : 0\n        Damaged sector count                 : 0\n\nTrack 04\n    Filename : /Volumes/HD 2/Snow Patrol - 2011 - Fallen Empires/04 - Snow Patrol - 2011 - This Isn't Everything You Are.flac\n\n    Track gain             : -9.65 dB\n    Peak                   : 0.963989\n    CRC32 hash (test run)  : 4ADABBD7\n    CRC32 hash             : 4ADABBD7\n    CRC32 hash (skip zero) : 03958C03\n    AccurateRip signature  : 1A3B8BA4\n        -&gt;Track not present in AccurateRip database.\n    Statistics\n        Read error                           : 0\n        Jitter error (maybe fixed)           : 0\n        Retry sector count                   : 0\n        Damaged sector count                 : 0\n\nTrack 05\n    Filename : /Volumes/HD 2/Snow Patrol - 2011 - Fallen Empires/05 - Snow Patrol - 2011 - The Garden Rules.flac\n\n    Track gain             : -7.75 dB\n    Peak                   : 0.985687\n    CRC32 hash (test run)  : 9F842DE3\n    CRC32 hash             : 9F842DE3\n    CRC32 hash (skip zero) : D68CDB1D\n    AccurateRip signature  : A7B394E2\n        -&gt;Track not present in AccurateRip database.\n    Statistics\n        Read error                           : 0\n        Jitter error (maybe fixed)           : 0\n        Retry sector count                   : 0\n        Damaged sector count                 : 0\n\nTrack 06\n    Filename : /Volumes/HD 2/Snow Patrol - 2011 - Fallen Empires/06 - Snow Patrol - 2011 - Fallen Empires.flac\n\n    Track gain             : -8.89 dB\n    Peak                   : 0.942505\n    CRC32 hash (test run)  : CD8BFAE4\n    CRC32 hash             : CD8BFAE4\n    CRC32 hash (skip zero) : A6ABC184\n    AccurateRip signature  : 0C5E42B5\n        -&gt;Track not present in AccurateRip database.\n    Statistics\n        Read error                           : 0\n        Jitter error (maybe fixed)           : 0\n        Retry sector count                   : 0\n        Damaged sector count                 : 0\n\nTrack 07\n    Filename : /Volumes/HD 2/Snow Patrol - 2011 - Fallen Empires/07 - Snow Patrol - 2011 - Berlin.flac\n\n    Track gain             : -7.75 dB\n    Peak                   : 0.999084\n    CRC32 hash (test run)  : C479E62F\n    CRC32 hash             : C479E62F\n    CRC32 hash (skip zero) : DDC0229A\n    AccurateRip signature  : F09DA558\n        -&gt;Track not present in AccurateRip database.\n    Statistics\n        Read error                           : 0\n        Jitter error (maybe fixed)           : 0\n        Retry sector count                   : 0\n        Damaged sector count                 : 0\n\nTrack 08\n    Filename : /Volumes/HD 2/Snow Patrol - 2011 - Fallen Empires/08 - Snow Patrol - 2011 - Lifening.flac\n\n    Track gain             : -7.17 dB\n    Peak                   : 0.967346\n    CRC32 hash (test run)  : EA732053\n    CRC32 hash             : EA732053\n    CRC32 hash (skip zero) : 0A121414\n    AccurateRip signature  : 572719D6\n        -&gt;Track not present in AccurateRip database.\n    Statistics\n        Read error                           : 0\n        Jitter error (maybe fixed)           : 0\n        Retry sector count                   : 0\n        Damaged sector count                 : 0\n\nTrack 09\n    Filename : /Volumes/HD 2/Snow Patrol - 2011 - Fallen Empires/09 - Snow Patrol - 2011 - New York.flac\n\n    Track gain             : -9.54 dB\n    Peak                   : 0.970184\n    CRC32 hash (test run)  : DA0C678C\n    CRC32 hash             : DA0C678C\n    CRC32 hash (skip zero) : 2DF30179\n    AccurateRip signature  : 5C242938\n        -&gt;Track not present in AccurateRip database.\n    Statistics\n        Read error                           : 0\n        Jitter error (maybe fixed)           : 0\n        Retry sector count                   : 0\n        Damaged sector count                 : 0\n\nTrack 10\n    Filename : /Volumes/HD 2/Snow Patrol - 2011 - Fallen Empires/10 - Snow Patrol - 2011 - In The End.flac\n\n    Track gain             : -9.78 dB\n    Peak                   : 0.964233\n    CRC32 hash (test run)  : 5337F599\n    CRC32 hash             : 5337F599\n    CRC32 hash (skip zero) : E2FADB12\n    AccurateRip signature  : 493157AC\n        -&gt;Track not present in AccurateRip database.\n    Statistics\n        Read error                           : 0\n        Jitter error (maybe fixed)           : 0\n        Retry sector count                   : 0\n        Damaged sector count                 : 0\n\nTrack 11\n    Filename : /Volumes/HD 2/Snow Patrol - 2011 - Fallen Empires/11 - Snow Patrol - 2011 - Those Distant Bells.flac\n\n    Track gain             : -5.88 dB\n    Peak                   : 0.976929\n    CRC32 hash (test run)  : 2079A456\n    CRC32 hash             : 2079A456\n    CRC32 hash (skip zero) : 41601CB6\n    AccurateRip signature  : 494F0285\n        -&gt;Track not present in AccurateRip database.\n    Statistics\n        Read error                           : 0\n        Jitter error (maybe fixed)           : 0\n        Retry sector count                   : 0\n        Damaged sector count                 : 0\n\nTrack 12\n    Filename : /Volumes/HD 2/Snow Patrol - 2011 - Fallen Empires/12 - Snow Patrol - 2011 - The Symphony.flac\n\n    Track gain             : -9.21 dB\n    Peak                   : 0.960480\n    CRC32 hash (test run)  : 34875117\n    CRC32 hash             : 34875117\n    CRC32 hash (skip zero) : FC1E93F5\n    AccurateRip signature  : 067F9757\n        -&gt;Track not present in AccurateRip database.\n    Statistics\n        Read error                           : 0\n        Jitter error (maybe fixed)           : 0\n        Retry sector count                   : 0\n        Damaged sector count                 : 0\n\nTrack 13\n    Filename : /Volumes/HD 2/Snow Patrol - 2011 - Fallen Empires/13 - Snow Patrol - 2011 - The President.flac\n\n    Track gain             : -7.63 dB\n    Peak                   : 0.944702\n    CRC32 hash (test run)  : 2AA908CE\n    CRC32 hash             : 2AA908CE\n    CRC32 hash (skip zero) : 378A4842\n    AccurateRip signature  : 5B4466D6\n        -&gt;Track not present in AccurateRip database.\n    Statistics\n        Read error                           : 0\n        Jitter error (maybe fixed)           : 0\n        Retry sector count                   : 0\n        Damaged sector count                 : 0\n\nTrack 14\n    Filename : /Volumes/HD 2/Snow Patrol - 2011 - Fallen Empires/14 - Snow Patrol - 2011 - Broken Bottles Form A Star (Prelude).flac\n\n    Track gain             : -2.95 dB\n    Peak                   : 0.681946\n    CRC32 hash (test run)  : 7B673729\n    CRC32 hash             : 7B673729\n    CRC32 hash (skip zero) : 7BC90517\n    AccurateRip signature  : 41A9D914\n        -&gt;Track not present in AccurateRip database.\n    Statistics\n        Read error                           : 0\n        Jitter error (maybe fixed)           : 0\n        Retry sector count                   : 0\n        Damaged sector count                 : 0\n\nNo errors occurred\n\nEnd of status report","torrent":{"xt":"urn:btih:a7dc311d4c363b0fe423e0a7a985e5aea79cb9b8","amp;dn":"Snow+Patrol+-+Fallen+Empires+%282011%29+FLAC+%5BCUE+%2B+LOG%5D","amp;tr":["udp%3A%2F%2Ftracker.openbittorrent.com%3A80","udp%3A%2F%2Fopen.demonii.com%3A1337","udp%3A%2F%2Ftracker.coppersurfer.tk%3A6969","udp%3A%2F%2Fexodus.desync.com%3A6969"],"infoHash":"a7dc311d4c363b0fe423e0a7a985e5aea79cb9b8","infoHashBuffer":{"type":"Buffer","data":[167,220,49,29,76,54,59,15,228,35,224,167,169,133,229,174,167,156,185,184]},"announce":[],"urlList":[]}}